<?xml version="1.0" encoding="utf-8"?>
<!-- Generated by IcoMoon.io -->
<!DOCTYPE svg PUBLIC "-//W3C//DTD SVG 1.1//EN" "http://www.w3.org/Graphics/SVG/1.1/DTD/svg11.dtd">
<svg version="1.1" xmlns="http://www.w3.org/2000/svg" xmlns:xlink="http://www.w3.org/1999/xlink" width="119" height="128" viewBox="0 0 119 128">
<path d="M105.857 75q3.286 1.857 4.25 5.536t-0.893 6.964l-4.571 7.857q-1.857 3.286-5.536 4.25t-6.964-0.893l-19-10.929v21.929q0 3.714-2.714 6.429t-6.429 2.714h-9.143q-3.714 0-6.429-2.714t-2.714-6.429v-21.929l-19 10.929q-3.286 1.857-6.964 0.893t-5.536-4.25l-4.571-7.857q-1.857-3.286-0.893-6.964t4.25-5.536l19-11-19-11q-3.286-1.857-4.25-5.536t0.893-6.964l4.571-7.857q1.857-3.286 5.536-4.25t6.964 0.893l19 10.929v-21.929q0-3.714 2.714-6.429t6.429-2.714h9.143q3.714 0 6.429 2.714t2.714 6.429v21.929l19-10.929q3.286-1.857 6.964-0.893t5.536 4.25l4.571 7.857q1.857 3.286 0.893 6.964t-4.25 5.536l-19 11z" fill="#444444"></path>
</svg>
