<?xml version="1.0" encoding="utf-8"?>
<!-- Generated by IcoMoon.io -->
<!DOCTYPE svg PUBLIC "-//W3C//DTD SVG 1.1//EN" "http://www.w3.org/Graphics/SVG/1.1/DTD/svg11.dtd">
<svg version="1.1" xmlns="http://www.w3.org/2000/svg" xmlns:xlink="http://www.w3.org/1999/xlink" width="119" height="128" viewBox="0 0 119 128">
<path d="M91.429 96q0-1.857-1.357-3.214t-3.214-1.357-3.214 1.357-1.357 3.214 1.357 3.214 3.214 1.357 3.214-1.357 1.357-3.214zM109.714 96q0-1.857-1.357-3.214t-3.214-1.357-3.214 1.357-1.357 3.214 1.357 3.214 3.214 1.357 3.214-1.357 1.357-3.214zM118.857 80v22.857q0 2.857-2 4.857t-4.857 2h-105.143q-2.857 0-4.857-2t-2-4.857v-22.857q0-2.857 2-4.857t4.857-2h33.214l9.643 9.714q4.143 4 9.714 4t9.714-4l9.714-9.714h33.143q2.857 0 4.857 2t2 4.857zM95.643 39.357q1.214 2.929-1 5l-32 32q-1.286 1.357-3.214 1.357t-3.214-1.357l-32-32q-2.214-2.071-1-5 1.214-2.786 4.214-2.786h18.286v-32q0-1.857 1.357-3.214t3.214-1.357h18.286q1.857 0 3.214 1.357t1.357 3.214v32h18.286q3 0 4.214 2.786z" fill="#444444"></path>
</svg>
