<?xml version="1.0" encoding="utf-8"?>
<!-- Generated by IcoMoon.io -->
<!DOCTYPE svg PUBLIC "-//W3C//DTD SVG 1.1//EN" "http://www.w3.org/Graphics/SVG/1.1/DTD/svg11.dtd">
<svg version="1.1" xmlns="http://www.w3.org/2000/svg" xmlns:xlink="http://www.w3.org/1999/xlink" width="128" height="128" viewBox="0 0 128 128">
<path d="M63.429 84.571l8.286-8.286-10.857-10.857-8.286 8.286v4h6.857v6.857h4zM94.857 33.143q-1.143-1.143-2.357 0.071l-25 25q-1.214 1.214-0.071 2.357t2.357-0.071l25-25q1.214-1.214 0.071-2.357zM100.571 75.571v13.571q0 8.5-6.036 14.536t-14.536 6.036h-59.429q-8.5 0-14.536-6.036t-6.036-14.536v-59.429q0-8.5 6.036-14.536t14.536-6.036h59.429q4.5 0 8.357 1.786 1.071 0.5 1.286 1.643 0.214 1.214-0.643 2.071l-3.5 3.5q-1 1-2.286 0.571-1.643-0.429-3.214-0.429h-59.429q-4.714 0-8.071 3.357t-3.357 8.071v59.429q0 4.714 3.357 8.071t8.071 3.357h59.429q4.714 0 8.071-3.357t3.357-8.071v-9q0-0.929 0.643-1.571l4.571-4.571q1.071-1.071 2.5-0.5t1.429 2.071zM93.714 22.857l20.571 20.571-48 48h-20.571v-20.571zM125.429 32.286l-6.571 6.571-20.571-20.571 6.571-6.571q2-2 4.857-2t4.857 2l10.857 10.857q2 2 2 4.857t-2 4.857z" fill="#444444"></path>
</svg>
