<?xml version="1.0" encoding="utf-8"?>
<!-- Generated by IcoMoon.io -->
<!DOCTYPE svg PUBLIC "-//W3C//DTD SVG 1.1//EN" "http://www.w3.org/Graphics/SVG/1.1/DTD/svg11.dtd">
<svg version="1.1" xmlns="http://www.w3.org/2000/svg" xmlns:xlink="http://www.w3.org/1999/xlink" width="128" height="128" viewBox="0 0 128 128">
<path d="M54.857 9.143q14.929 0 27.536 7.357t19.964 19.964 7.357 27.536-7.357 27.536-19.964 19.964-27.536 7.357-27.536-7.357-19.964-19.964-7.357-27.536 7.357-27.536 19.964-19.964 27.536-7.357zM64 98.214v-13.571q0-1-0.643-1.679t-1.571-0.679h-13.714q-0.929 0-1.643 0.714t-0.714 1.643v13.571q0 0.929 0.714 1.643t1.643 0.714h13.714q0.929 0 1.571-0.679t0.643-1.679zM63.857 73.643l1.286-44.357q0-0.857-0.714-1.286-0.714-0.571-1.714-0.571h-15.714q-1 0-1.714 0.571-0.714 0.429-0.714 1.286l1.214 44.357q0 0.714 0.714 1.25t1.714 0.536h13.214q1 0 1.679-0.536t0.75-1.25z" fill="#444444"></path>
</svg>
