<?xml version="1.0" encoding="utf-8"?>
<!-- Generated by IcoMoon.io -->
<!DOCTYPE svg PUBLIC "-//W3C//DTD SVG 1.1//EN" "http://www.w3.org/Graphics/SVG/1.1/DTD/svg11.dtd">
<svg version="1.1" xmlns="http://www.w3.org/2000/svg" xmlns:xlink="http://www.w3.org/1999/xlink" width="128" height="128" viewBox="0 0 128 128">
<path d="M74.286 86.857q0 2.357-1.679 4.036t-4.036 1.679-4.036-1.679-1.679-4.036 1.679-4.036 4.036-1.679 4.036 1.679 1.679 4.036zM92.571 86.857q0 2.357-1.679 4.036t-4.036 1.679-4.036-1.679-1.679-4.036 1.679-4.036 4.036-1.679 4.036 1.679 1.679 4.036zM100.571 98.286v-22.857q0-0.929-0.679-1.607t-1.607-0.679h-86.857q-0.929 0-1.607 0.679t-0.679 1.607v22.857q0 0.929 0.679 1.607t1.607 0.679h86.857q0.929 0 1.607-0.679t0.679-1.607zM12.714 64h84.286l-11.214-34.429q-0.286-0.929-1.143-1.536t-1.857-0.607h-55.857q-1 0-1.857 0.607t-1.143 1.536zM109.714 75.429v22.857q0 4.714-3.357 8.071t-8.071 3.357h-86.857q-4.714 0-8.071-3.357t-3.357-8.071v-22.857q0-1.786 1.143-5.357l14.071-43.286q1.214-3.786 4.5-6.143t7.214-2.357h55.857q3.929 0 7.214 2.357t4.5 6.143l14.071 43.286q1.143 3.571 1.143 5.357z" fill="#444444"></path>
</svg>
