<?xml version="1.0" encoding="utf-8"?>
<!-- Generated by IcoMoon.io -->
<!DOCTYPE svg PUBLIC "-//W3C//DTD SVG 1.1//EN" "http://www.w3.org/Graphics/SVG/1.1/DTD/svg11.dtd">
<svg version="1.1" xmlns="http://www.w3.org/2000/svg" xmlns:xlink="http://www.w3.org/1999/xlink" width="128" height="128" viewBox="0 0 128 128">
<path d="M128 45.714q0 1.857-1.357 3.214l-36.571 36.571q-1.357 1.357-3.214 1.357t-3.214-1.357-1.357-3.214v-18.286h-16q-7 0-12.536 0.429t-11 1.536-9.5 3.036-7.536 4.964-5.714 7.214-3.464 9.893-1.25 12.929q0 3.929 0.357 8.786 0 0.429 0.179 1.679t0.179 1.893q0 1.071-0.607 1.786t-1.679 0.714q-1.143 0-2-1.214-0.5-0.643-0.929-1.571t-0.964-2.143-0.75-1.714q-9.071-20.357-9.071-32.214 0-14.214 3.786-23.786 11.571-28.786 62.5-28.786h16v-18.286q0-1.857 1.357-3.214t3.214-1.357 3.214 1.357l36.571 36.571q1.357 1.357 1.357 3.214z" fill="#444444"></path>
</svg>
