<?xml version="1.0" encoding="utf-8"?>
<!-- Generated by IcoMoon.io -->
<!DOCTYPE svg PUBLIC "-//W3C//DTD SVG 1.1//EN" "http://www.w3.org/Graphics/SVG/1.1/DTD/svg11.dtd">
<svg version="1.1" xmlns="http://www.w3.org/2000/svg" xmlns:xlink="http://www.w3.org/1999/xlink" width="128" height="128" viewBox="0 0 128 128">
<path d="M91.429 68.571v-9.143q0-1.857-1.357-3.214t-3.214-1.357h-22.857v-22.857q0-1.857-1.357-3.214t-3.214-1.357h-9.143q-1.857 0-3.214 1.357t-1.357 3.214v22.857h-22.857q-1.857 0-3.214 1.357t-1.357 3.214v9.143q0 1.857 1.357 3.214t3.214 1.357h22.857v22.857q0 1.857 1.357 3.214t3.214 1.357h9.143q1.857 0 3.214-1.357t1.357-3.214v-22.857h22.857q1.857 0 3.214-1.357t1.357-3.214zM109.714 29.714v68.571q0 8.5-6.036 14.536t-14.536 6.036h-68.571q-8.5 0-14.536-6.036t-6.036-14.536v-68.571q0-8.5 6.036-14.536t14.536-6.036h68.571q8.5 0 14.536 6.036t6.036 14.536z" fill="#444444"></path>
</svg>
